//gambar


<svg width="660" height="526" viewBox="0 0 660 526" fill="none" xmlns="http://www.w3.org/2000/svg">
<rect width="660" height="526" rx="58" fill="#D2A53E"/>
<path d="M334.24 478C332.817 478 331.393 478 329.959 477.993C296.252 478.075 265.108 477.219 234.82 475.375C207.052 473.686 181.705 464.09 161.515 447.628C142.034 431.743 128.73 410.264 121.975 383.796C116.096 360.753 115.784 338.133 115.486 316.254C115.269 300.556 115.046 281.955 115 263.039C115.046 244.044 115.269 225.443 115.486 209.745C115.784 187.869 116.096 165.249 121.975 142.203C128.73 115.734 142.034 94.2559 161.515 78.371C181.705 61.9087 207.052 52.3128 234.823 50.6233C265.111 48.7829 296.262 47.9233 330.041 48.0054C363.757 47.9332 394.892 48.7829 425.18 50.6233C452.948 52.3128 478.296 61.9087 498.485 78.371C517.97 94.2559 531.27 115.734 538.025 142.203C543.904 165.246 544.216 187.869 544.514 209.745C544.731 225.443 544.957 244.044 545 262.96V263.039C544.957 281.955 544.731 300.556 544.514 316.254C544.216 338.13 543.908 360.75 538.025 383.796C531.27 410.264 517.97 431.743 498.485 447.628C478.296 464.09 452.948 473.686 425.18 475.375C396.175 477.14 366.379 478 334.24 478V478ZM329.959 444.4C363.118 444.478 393.563 443.642 423.139 441.844C444.136 440.568 462.341 433.754 477.255 421.593C491.041 410.35 500.536 394.839 505.473 375.49C510.368 356.308 510.65 335.712 510.923 315.795C511.136 300.202 511.359 281.732 511.405 262.999C511.359 244.264 511.136 225.797 510.923 210.204C510.65 190.287 510.368 169.691 505.473 150.506C500.536 131.157 491.041 115.646 477.255 104.403C462.341 92.2449 444.136 85.431 423.139 84.1548C393.563 82.3537 363.118 81.5237 330.038 81.5959C296.886 81.5172 266.437 82.3537 236.861 84.1548C215.864 85.431 197.659 92.2449 182.745 104.403C168.959 115.646 159.464 131.157 154.527 150.506C149.632 169.691 149.35 190.284 149.077 210.204C148.864 225.81 148.641 244.29 148.595 263.039C148.641 281.706 148.864 300.189 149.077 315.795C149.35 335.712 149.632 356.308 154.527 375.49C159.464 394.839 168.959 410.35 182.745 421.593C197.659 433.751 215.864 440.565 236.861 441.841C266.437 443.642 296.892 444.482 329.959 444.4V444.4ZM329.158 367.98C271.273 367.98 224.174 320.886 224.174 262.999C224.174 205.112 271.273 158.019 329.158 158.019C387.048 158.019 434.143 205.112 434.143 262.999C434.143 320.886 387.048 367.98 329.158 367.98V367.98ZM329.158 191.612C289.796 191.612 257.769 223.638 257.769 262.999C257.769 302.361 289.796 334.386 329.158 334.386C368.524 334.386 400.548 302.361 400.548 262.999C400.548 223.638 368.524 191.612 329.158 191.612V191.612ZM445.901 124.425C431.988 124.425 420.705 135.704 420.705 149.62C420.705 163.537 431.988 174.816 445.901 174.816C459.818 174.816 471.098 163.537 471.098 149.62C471.098 135.704 459.818 124.425 445.901 124.425Z" fill="white"/>
</svg>
