<svg width="660" height="526" viewBox="0 0 660 526" fill="none" xmlns="http://www.w3.org/2000/svg">
<rect width="660" height="526" rx="58" fill="#D2A53E"/>
<path d="M562 118.321C544.708 125.906 526.282 130.934 507.072 133.375C526.834 121.576 541.918 103.034 549.009 80.685C530.583 91.6706 510.24 99.4303 488.559 103.761C471.063 85.1316 446.128 73.5938 418.925 73.5938C366.148 73.5938 323.658 116.432 323.658 168.948C323.658 176.504 324.298 183.77 325.867 190.687C246.614 186.821 176.486 148.837 129.376 90.9731C121.151 105.243 116.327 121.576 116.327 139.159C116.327 172.174 133.328 201.44 158.671 218.383C143.355 218.092 128.329 213.646 115.6 206.642C115.6 206.933 115.6 207.31 115.6 207.688C115.6 254.014 148.644 292.492 191.976 301.357C184.217 303.478 175.759 304.495 166.982 304.495C160.879 304.495 154.718 304.147 148.935 302.868C161.286 340.62 196.336 368.375 238.011 369.276C205.578 394.647 164.396 409.934 119.814 409.934C111.996 409.934 104.498 409.585 97 408.626C139.228 435.858 189.273 451.406 243.243 451.406C418.664 451.406 514.57 306.094 514.57 180.137C514.57 175.923 514.425 171.854 514.221 167.814C533.141 154.388 549.038 137.618 562 118.321Z" fill="white"/>
</svg>
